<svg xmlns="http://www.w3.org/2000/svg" version="1.1" xmlns:xlink="http://www.w3.org/1999/xlink" width="200" height="200"><svg xmlns="http://www.w3.org/2000/svg" version="1.1" xmlns:xlink="http://www.w3.org/1999/xlink" viewBox="0 0 200 200"><rect width="200" height="200" fill="url('#gradient')"></rect><defs><linearGradient id="SvgjsLinearGradient1001" gradientTransform="rotate(229 0.5 0.5)"><stop offset="0%" stop-color="#1f9336"></stop><stop offset="100%" stop-color="#2deae1"></stop></linearGradient></defs><g><g fill="#ffffff" transform="matrix(2.741108986615679,0,0,2.741108986615679,41.06224991509381,120.28654958677566)" stroke="#2b2b2b" stroke-width="0"><path d="M10.03-8.30L10.03-5.66L4.50-5.66L4.50 0L1.07 0L1.07-14.22L10.59-14.22L10.59-11.57L4.50-11.57L4.50-8.30L10.03-8.30ZM15.33-15L15.33 0L12.03 0L12.03-15L15.33-15ZM16.95-4.82L16.94-5.38Q16.94-6.96 17.56-8.20Q18.17-9.43 19.33-10.10Q20.48-10.76 22.03-10.76L22.03-10.76Q24.40-10.76 25.77-9.29Q27.14-7.82 27.14-5.29L27.14-5.29L27.14-5.18Q27.14-2.71 25.77-1.25Q24.39 0.20 22.05 0.20L22.05 0.20Q19.79 0.20 18.43-1.16Q17.06-2.51 16.95-4.82L16.95-4.82ZM20.24-5.77L20.23-5.18Q20.23-3.71 20.69-3.03Q21.15-2.34 22.05-2.34L22.05-2.34Q23.81-2.34 23.85-5.05L23.85-5.05L23.85-5.38Q23.85-8.22 22.03-8.22L22.03-8.22Q20.38-8.22 20.24-5.77L20.24-5.77ZM36.05-10.57L37.71-4.34L38.78-10.57L41.93-10.57L39.44 0L36.66 0L34.91-6.27L33.15 0L30.37 0L27.88-10.57L31.04-10.57L32.08-4.19L33.76-10.57L36.05-10.57Z"></path></g></g></svg><style>@media (prefers-color-scheme: light) { :root { filter: none; } }
@media (prefers-color-scheme: dark) { :root { filter: none; } }
</style></svg>